<svg width="43" height="49" viewBox="0 0 43 49" fill="none" xmlns="http://www.w3.org/2000/svg">
<rect width="43" height="49" fill="#E5E5E5"/>
<rect x="-30" y="-18" width="390" height="844" rx="32" fill="#FDFDFD"/>
<path d="M11.2923 7.30728C12.8821 7.12057 13.5875 4.6822 13.4152 3.21474C13.2716 1.99186 12.4878 0.596206 11.2649 0.739826C9.67514 0.926532 8.96971 3.3649 9.14205 4.83236C9.28567 6.05525 10.0695 7.4509 11.2923 7.30728ZM6.64539 7.85303C7.86827 7.70941 8.30737 6.17014 8.16375 4.94726C7.97704 3.35751 6.72585 1.14893 5.13611 1.33564C3.91322 1.47926 3.47413 3.01853 3.61775 4.24141C3.68217 5.84552 4.93335 8.0541 6.64539 7.85303ZM15.5511 5.56736C13.9613 5.75407 13.1193 8.08451 13.306 9.67426C13.4352 10.7749 14.0536 11.818 15.1542 11.6887C16.744 11.502 17.5861 9.17159 17.3994 7.58184C17.2701 6.48125 16.5294 5.45246 15.5511 5.56736ZM5.35724 10.6078C5.17053 9.01804 3.68914 6.96048 2.22168 7.13282C1.12108 7.26208 0.761187 8.42012 0.890445 9.52071C1.07715 11.1105 2.55855 13.168 4.02601 12.9957C5.1266 12.8664 5.4865 11.7084 5.35724 10.6078ZM9.24174 9.90363C6.79598 10.1909 3.95378 14.4919 4.26974 17.1822C4.41336 18.4051 5.31247 18.6714 6.29077 18.5565C7.75823 18.3842 8.74393 17.2766 10.0891 17.1186C11.312 16.975 12.5275 17.8241 13.8726 17.6661C14.851 17.5512 15.9228 17.1774 15.7648 15.8322C15.4489 13.1418 11.6875 9.61639 9.24174 9.90363Z" fill="#FE4C4C"/>
<path d="M35.4638 21.0892C37.0525 21.2849 38.3162 19.0835 38.4968 17.617C38.6474 16.395 38.217 14.8532 36.995 14.7027C35.4063 14.5069 34.1426 16.7084 33.962 18.1748C33.8114 19.3969 34.2418 20.9386 35.4638 21.0892ZM30.82 20.5171C32.0421 20.6676 32.8338 19.2764 32.9843 18.0544C33.18 16.4657 32.4885 14.0234 30.8998 13.8277C29.6778 13.6771 28.8861 15.0683 28.7355 16.2903C28.4176 17.8639 29.1092 20.3063 30.82 20.5171ZM40.0137 20.4091C38.4251 20.2134 37.0542 22.2776 36.8585 23.8663C36.723 24.9661 37.0763 26.1262 38.1761 26.2617C39.7648 26.4574 41.1357 24.3932 41.3314 22.8046C41.4669 21.7047 40.9914 20.5296 40.0137 20.4091ZM28.9152 22.8876C29.1109 21.299 28.1599 18.9487 26.6934 18.768C25.5936 18.6325 24.9692 19.6722 24.8337 20.772C24.638 22.3607 25.5891 24.7109 27.0555 24.8916C28.1554 25.0271 28.7797 23.9875 28.9152 22.8876ZM32.8558 23.125C30.4118 22.8239 26.6304 26.3279 26.2992 29.0164C26.1486 30.2385 26.9589 30.7105 27.9365 30.8309C29.403 31.0116 30.6233 30.1695 31.9675 30.3351C33.1896 30.4857 34.169 31.5988 35.5132 31.7644C36.4909 31.8849 37.6208 31.7759 37.7864 30.4317C38.1177 27.7432 35.2999 23.4261 32.8558 23.125Z" fill="#EB4335"/>
<path d="M12.8121 36.9953C14.3798 37.3185 15.8169 35.2261 16.1152 33.779C16.3638 32.5731 16.0592 31.0017 14.8533 30.753C13.2855 30.4299 11.8484 32.5222 11.5501 33.9694C11.3015 35.1753 11.6062 36.7467 12.8121 36.9953ZM8.22955 36.0506C9.43548 36.2992 10.3368 34.9764 10.5854 33.7705C10.9086 32.2028 10.4162 29.7126 8.84847 29.3894C7.64254 29.1408 6.74125 30.4636 6.49264 31.6696C6.04886 33.2124 6.54125 35.7025 8.22955 36.0506ZM17.402 36.6844C15.8343 36.3612 14.3015 38.3081 13.9783 39.8758C13.7546 40.9611 14.0132 42.1459 15.0985 42.3697C16.6662 42.6928 18.1991 40.7459 18.5222 39.1782C18.746 38.0929 18.3668 36.8832 17.402 36.6844ZM6.13977 38.2599C6.46296 36.6922 5.70452 34.2729 4.25741 33.9745C3.17207 33.7508 2.46596 34.7367 2.24221 35.822C1.91902 37.3897 2.67746 39.809 4.12458 40.1073C5.20991 40.3311 5.91603 39.3452 6.13977 38.2599ZM10.0485 38.8142C7.63661 38.317 3.58506 41.5047 3.03813 44.1578C2.78952 45.3637 3.55909 45.8995 4.52383 46.0984C5.97095 46.3967 7.25517 45.6557 8.58169 45.9292C9.78762 46.1778 10.6741 47.3663 12.0006 47.6398C12.9653 47.8386 14.1004 47.8212 14.3739 46.4947C14.9208 43.8416 12.4603 39.3114 10.0485 38.8142Z" fill="#FE4C4C"/>
<rect x="-30" y="-18" width="390" height="844" rx="32" fill="#FDFDFD"/>
<path d="M11.2923 7.30728C12.8821 7.12057 13.5875 4.6822 13.4152 3.21474C13.2716 1.99186 12.4878 0.596206 11.2649 0.739826C9.67514 0.926532 8.96971 3.3649 9.14205 4.83236C9.28567 6.05525 10.0695 7.4509 11.2923 7.30728ZM6.64539 7.85303C7.86827 7.70941 8.30737 6.17014 8.16375 4.94726C7.97704 3.35751 6.72585 1.14893 5.13611 1.33564C3.91322 1.47926 3.47413 3.01853 3.61775 4.24141C3.68217 5.84552 4.93335 8.0541 6.64539 7.85303ZM15.5511 5.56736C13.9613 5.75407 13.1193 8.08451 13.306 9.67426C13.4352 10.7749 14.0536 11.818 15.1542 11.6887C16.744 11.502 17.5861 9.17159 17.3994 7.58184C17.2701 6.48125 16.5294 5.45246 15.5511 5.56736ZM5.35724 10.6078C5.17053 9.01804 3.68914 6.96048 2.22168 7.13282C1.12108 7.26208 0.761187 8.42012 0.890445 9.52071C1.07715 11.1105 2.55855 13.168 4.02601 12.9957C5.1266 12.8664 5.4865 11.7084 5.35724 10.6078ZM9.24174 9.90363C6.79598 10.1909 3.95378 14.4919 4.26974 17.1822C4.41336 18.4051 5.31247 18.6714 6.29077 18.5565C7.75823 18.3842 8.74393 17.2766 10.0891 17.1186C11.312 16.975 12.5275 17.8241 13.8726 17.6661C14.851 17.5512 15.9228 17.1774 15.7648 15.8322C15.4489 13.1418 11.6875 9.61639 9.24174 9.90363Z" fill="#FE4C4C"/>
<path d="M35.4638 21.0892C37.0525 21.2849 38.3162 19.0835 38.4968 17.617C38.6474 16.395 38.217 14.8532 36.995 14.7027C35.4063 14.5069 34.1426 16.7084 33.962 18.1748C33.8114 19.3969 34.2418 20.9386 35.4638 21.0892ZM30.82 20.5171C32.0421 20.6676 32.8338 19.2764 32.9843 18.0544C33.18 16.4657 32.4885 14.0234 30.8998 13.8277C29.6778 13.6771 28.8861 15.0683 28.7355 16.2903C28.4176 17.8639 29.1092 20.3063 30.82 20.5171ZM40.0137 20.4091C38.4251 20.2134 37.0542 22.2776 36.8585 23.8663C36.723 24.9661 37.0763 26.1262 38.1761 26.2617C39.7648 26.4574 41.1357 24.3932 41.3314 22.8046C41.4669 21.7047 40.9914 20.5296 40.0137 20.4091ZM28.9152 22.8876C29.1109 21.299 28.1599 18.9487 26.6934 18.768C25.5936 18.6325 24.9692 19.6722 24.8337 20.772C24.638 22.3607 25.5891 24.7109 27.0555 24.8916C28.1554 25.0271 28.7797 23.9875 28.9152 22.8876ZM32.8558 23.125C30.4118 22.8239 26.6304 26.3279 26.2992 29.0164C26.1486 30.2385 26.9589 30.7105 27.9365 30.8309C29.403 31.0116 30.6233 30.1695 31.9675 30.3351C33.1896 30.4857 34.169 31.5988 35.5132 31.7644C36.4909 31.8849 37.6208 31.7759 37.7864 30.4317C38.1177 27.7432 35.2999 23.4261 32.8558 23.125Z" fill="#EB4335"/>
<path d="M12.8121 36.9953C14.3798 37.3185 15.8169 35.2261 16.1152 33.779C16.3638 32.5731 16.0592 31.0017 14.8533 30.753C13.2855 30.4299 11.8484 32.5222 11.5501 33.9694C11.3015 35.1753 11.6062 36.7467 12.8121 36.9953ZM8.22955 36.0506C9.43548 36.2992 10.3368 34.9764 10.5854 33.7705C10.9086 32.2028 10.4162 29.7126 8.84847 29.3894C7.64254 29.1408 6.74125 30.4636 6.49264 31.6696C6.04886 33.2124 6.54125 35.7025 8.22955 36.0506ZM17.402 36.6844C15.8343 36.3612 14.3015 38.3081 13.9783 39.8758C13.7546 40.9611 14.0132 42.1459 15.0985 42.3697C16.6662 42.6928 18.1991 40.7459 18.5222 39.1782C18.746 38.0929 18.3668 36.8832 17.402 36.6844ZM6.13977 38.2599C6.46296 36.6922 5.70452 34.2729 4.25741 33.9745C3.17207 33.7508 2.46596 34.7367 2.24221 35.822C1.91902 37.3897 2.67746 39.809 4.12458 40.1073C5.20991 40.3311 5.91603 39.3452 6.13977 38.2599ZM10.0485 38.8142C7.63661 38.317 3.58506 41.5047 3.03813 44.1578C2.78952 45.3637 3.55909 45.8995 4.52383 46.0984C5.97095 46.3967 7.25517 45.6557 8.58169 45.9292C9.78762 46.1778 10.6741 47.3663 12.0006 47.6398C12.9653 47.8386 14.1004 47.8212 14.3739 46.4947C14.9208 43.8416 12.4603 39.3114 10.0485 38.8142Z" fill="#FE4C4C"/>
</svg>
